<?xml version="1.0" encoding="UTF-8" standalone="no"?><!DOCTYPE svg PUBLIC "-//W3C//DTD SVG 1.1//EN" "http://www.w3.org/Graphics/SVG/1.1/DTD/svg11.dtd"><!-- Generated by graphviz version 2.40.1 (20161225.0304)
 --><!-- Title: %0 Pages: 1 -->
<svg xmlns="http://www.w3.org/2000/svg" width="844pt" height="382pt" viewBox="0.00 0.00 843.98 382.00">
<g id="graph0" class="graph" transform="scale(1 1) rotate(0) translate(4 378)">
<title>%0</title>
<polygon fill="#ffffff" stroke="transparent" points="-4,4 -4,-378 839.9798,-378 839.9798,4 -4,4"/>
<text text-anchor="middle" x="417.9899" y="-338.5" font-family="Times,serif" font-size="35.00" fill="#000000">MBChallenge</text>
<!-- :app -->
<g id="node1" class="node">
<title>:app</title>
<ellipse fill="#ffffff" stroke="#000000" cx="441.9487" cy="-306" rx="27.8286" ry="18"/>
<text text-anchor="middle" x="441.9487" y="-301.8" font-family="Times New Roman" font-size="14.00" fill="#000000">:app</text>
</g>
<!-- :libraries:arch -->
<g id="node2" class="node">
<title>:libraries:arch</title>
<ellipse fill="#ffffff" stroke="#000000" cx="441.9487" cy="-18" rx="64.8176" ry="18"/>
<text text-anchor="middle" x="441.9487" y="-13.8" font-family="Times New Roman" font-size="14.00" fill="#000000">:libraries:arch</text>
</g>
<!-- :app&#45;&gt;:libraries:arch -->
<g id="edge1" class="edge">
<title>:app-&gt;:libraries:arch</title>
<path fill="none" stroke="#000000" d="M469.294,-303.1587C533.5048,-296.15 692.033,-276.7911 738.9487,-252 815.2763,-211.6672 868.4127,-137.3028 811.9487,-72 792.8094,-49.8646 617.0826,-32.1222 514.8404,-23.5654"/>
<polygon fill="#000000" stroke="#000000" points="514.8301,-20.0527 504.5756,-22.7165 514.2531,-27.0289 514.8301,-20.0527"/>
</g>
<!-- :libraries:design -->
<g id="node3" class="node">
<title>:libraries:design</title>
<ellipse fill="#ffffff" stroke="#000000" cx="710.9487" cy="-90" rx="73.0074" ry="18"/>
<text text-anchor="middle" x="710.9487" y="-85.8" font-family="Times New Roman" font-size="14.00" fill="#000000">:libraries:design</text>
</g>
<!-- :app&#45;&gt;:libraries:design -->
<g id="edge2" class="edge">
<title>:app-&gt;:libraries:design</title>
<path fill="none" stroke="#000000" d="M469.3048,-303.2788C515.5208,-297.9617 611.3131,-283.811 685.9487,-252 739.0182,-229.3808 766.7278,-230.8628 793.9487,-180 801.4984,-165.8932 801.5773,-158.0643 793.9487,-144 786.2165,-129.7447 772.9121,-118.6628 759.1923,-110.3512"/>
<polygon fill="#000000" stroke="#000000" points="760.6037,-107.1297 750.1708,-105.2839 757.1755,-113.2328 760.6037,-107.1297"/>
</g>
<!-- :core:navigation -->
<g id="node4" class="node">
<title>:core:navigation</title>
<ellipse fill="#ffffff" stroke="#000000" cx="441.9487" cy="-162" rx="73.5753" ry="18"/>
<text text-anchor="middle" x="441.9487" y="-157.8" font-family="Times New Roman" font-size="14.00" fill="#000000">:core:navigation</text>
</g>
<!-- :app&#45;&gt;:core:navigation -->
<g id="edge3" class="edge">
<title>:app-&gt;:core:navigation</title>
<path fill="none" stroke="#000000" d="M441.9487,-287.7623C441.9487,-263.201 441.9487,-219.2474 441.9487,-190.3541"/>
<polygon fill="#000000" stroke="#000000" points="445.4488,-190.0896 441.9487,-180.0896 438.4488,-190.0897 445.4488,-190.0896"/>
</g>
<!-- :core:data:remote -->
<g id="node5" class="node">
<title>:core:data:remote</title>
<ellipse fill="#ffffff" stroke="#000000" cx="688.9487" cy="-162" rx="78.7047" ry="18"/>
<text text-anchor="middle" x="688.9487" y="-157.8" font-family="Times New Roman" font-size="14.00" fill="#000000">:core:data:remote</text>
</g>
<!-- :app&#45;&gt;:core:data:remote -->
<g id="edge4" class="edge">
<title>:app-&gt;:core:data:remote</title>
<path fill="none" stroke="#000000" d="M469.2847,-302.7516C522.0596,-295.9468 635.2295,-278.5899 662.9487,-252 679.5634,-236.0623 685.7534,-210.2313 687.9675,-190.3216"/>
<polygon fill="#000000" stroke="#000000" points="691.4638,-190.5104 688.8134,-180.2525 684.4884,-189.9243 691.4638,-190.5104"/>
</g>
<!-- :core:domain -->
<g id="node6" class="node">
<title>:core:domain</title>
<ellipse fill="#ffffff" stroke="#000000" cx="241.9487" cy="-18" rx="61.977" ry="18"/>
<text text-anchor="middle" x="241.9487" y="-13.8" font-family="Times New Roman" font-size="14.00" fill="#000000">:core:domain</text>
</g>
<!-- :app&#45;&gt;:core:domain -->
<g id="edge6" class="edge">
<title>:app-&gt;:core:domain</title>
<path fill="none" stroke="#000000" d="M413.9719,-304.7832C357.6943,-301.5736 227.5042,-290.2783 125.9487,-252 68.8151,-230.4652 38.7326,-233.3003 8.9487,-180 -17.3272,-132.9776 19.6901,-102.7035 63.9487,-72 97.1761,-48.9492 140.4885,-35.5284 176.0687,-27.832"/>
<polygon fill="#000000" stroke="#000000" points="176.7963,-31.2557 185.8843,-25.8097 175.3837,-24.3997 176.7963,-31.2557"/>
</g>
<!-- :core:data:local -->
<g id="node7" class="node">
<title>:core:data:local</title>
<ellipse fill="#ffffff" stroke="#000000" cx="88.9487" cy="-162" rx="70.6181" ry="18"/>
<text text-anchor="middle" x="88.9487" y="-157.8" font-family="Times New Roman" font-size="14.00" fill="#000000">:core:data:local</text>
</g>
<!-- :app&#45;&gt;:core:data:local -->
<g id="edge5" class="edge">
<title>:app-&gt;:core:data:local</title>
<path fill="none" stroke="#000000" d="M414.5983,-302.6257C354.9814,-294.9305 215.3511,-274.9633 173.9487,-252 146.1559,-236.5851 122.11,-208.9489 106.7557,-188.3537"/>
<polygon fill="#000000" stroke="#000000" points="109.4194,-186.0644 100.7218,-180.0144 103.7482,-190.1678 109.4194,-186.0644"/>
</g>
<!-- :libraries:testing -->
<g id="node8" class="node">
<title>:libraries:testing</title>
<ellipse fill="#ffffff" stroke="#000000" cx="190.9487" cy="-90" rx="73.5849" ry="18"/>
<text text-anchor="middle" x="190.9487" y="-85.8" font-family="Times New Roman" font-size="14.00" fill="#000000">:libraries:testing</text>
</g>
<!-- :app&#45;&gt;:libraries:testing -->
<g id="edge8" class="edge">
<title>:app-&gt;:libraries:testing</title>
<path fill="none" stroke="#000000" d="M414.5182,-303.0937C360.9827,-296.8468 245.4844,-280.3597 218.9487,-252 185.1055,-215.8305 184.2801,-154.2502 187.2592,-118.3344"/>
<polygon fill="#000000" stroke="#000000" points="190.7732,-118.3644 188.2735,-108.0687 183.8071,-117.676 190.7732,-118.3644"/>
</g>
<!-- :features:exchanges -->
<g id="node9" class="node">
<title>:features:exchanges</title>
<ellipse fill="#ffffff" stroke="#000000" cx="314.9487" cy="-234" rx="87.3557" ry="18"/>
<text text-anchor="middle" x="314.9487" y="-229.8" font-family="Times New Roman" font-size="14.00" fill="#000000">:features:exchanges</text>
</g>
<!-- :app&#45;&gt;:features:exchanges -->
<g id="edge7" class="edge">
<title>:app-&gt;:features:exchanges</title>
<path fill="none" stroke="#000000" d="M420.9772,-294.1107C402.7725,-283.7899 375.9369,-268.576 353.819,-256.0367"/>
<polygon fill="#000000" stroke="#000000" points="355.406,-252.9131 344.9806,-251.0259 351.9536,-259.0026 355.406,-252.9131"/>
</g>
<!-- :features:details -->
<g id="node10" class="node">
<title>:features:details</title>
<ellipse fill="#ffffff" stroke="#000000" cx="581.9487" cy="-234" rx="72.34" ry="18"/>
<text text-anchor="middle" x="581.9487" y="-229.8" font-family="Times New Roman" font-size="14.00" fill="#000000">:features:details</text>
</g>
<!-- :app&#45;&gt;:features:details -->
<g id="edge9" class="edge">
<title>:app-&gt;:features:details</title>
<path fill="none" stroke="#000000" d="M463.8237,-294.75C484.5085,-284.1121 516.0598,-267.8857 541.3521,-254.8783"/>
<polygon fill="#000000" stroke="#000000" points="543.0632,-257.934 550.3554,-250.248 539.8618,-251.709 543.0632,-257.934"/>
</g>
<!-- :core:navigation&#45;&gt;:libraries:arch -->
<g id="edge10" class="edge">
<title>:core:navigation-&gt;:libraries:arch</title>
<path fill="none" stroke="#000000" d="M441.9487,-143.7623C441.9487,-119.201 441.9487,-75.2474 441.9487,-46.3541"/>
<polygon fill="#000000" stroke="#000000" points="445.4488,-46.0896 441.9487,-36.0896 438.4488,-46.0897 445.4488,-46.0896"/>
</g>
<!-- :core:data:remote&#45;&gt;:libraries:arch -->
<g id="edge11" class="edge">
<title>:core:data:remote-&gt;:libraries:arch</title>
<path fill="none" stroke="#000000" d="M660.1312,-145.1995C615.086,-118.9384 528.0423,-68.1922 478.6007,-39.368"/>
<polygon fill="#000000" stroke="#000000" points="480.2269,-36.2647 469.825,-34.2518 476.7013,-42.3121 480.2269,-36.2647"/>
</g>
<!-- :core:data:remote&#45;&gt;:libraries:design -->
<g id="edge13" class="edge">
<title>:core:data:remote-&gt;:libraries:design</title>
<path fill="none" stroke="#000000" d="M694.5002,-143.8314C696.879,-136.0463 699.7125,-126.7729 702.352,-118.1347"/>
<polygon fill="#000000" stroke="#000000" points="705.7474,-118.9996 705.3224,-108.4133 699.0529,-116.954 705.7474,-118.9996"/>
</g>
<!-- :core:data:remote&#45;&gt;:core:domain -->
<g id="edge12" class="edge">
<title>:core:data:remote-&gt;:core:domain</title>
<path fill="none" stroke="#000000" d="M643.2125,-147.2662C559.3324,-120.2444 381.4454,-62.9385 293.4522,-34.5917"/>
<polygon fill="#000000" stroke="#000000" points="294.2811,-31.1817 283.6896,-31.4467 292.1347,-37.8445 294.2811,-31.1817"/>
</g>
<!-- :core:data:local&#45;&gt;:libraries:arch -->
<g id="edge15" class="edge">
<title>:core:data:local-&gt;:libraries:arch</title>
<path fill="none" stroke="#000000" d="M87.2569,-143.9695C86.416,-123.4869 88.5304,-90.5122 107.9487,-72 112.767,-67.4065 278.3382,-42.2269 374.5122,-27.9294"/>
<polygon fill="#000000" stroke="#000000" points="375.0743,-31.3844 384.4519,-26.4537 374.0463,-24.4603 375.0743,-31.3844"/>
</g>
<!-- :core:data:local&#45;&gt;:core:domain -->
<g id="edge16" class="edge">
<title>:core:data:local-&gt;:core:domain</title>
<path fill="none" stroke="#000000" d="M79.0801,-143.9658C69.8509,-124.3868 59.5977,-93.0974 74.9487,-72 87.6872,-54.4931 137.7432,-39.7829 179.7611,-30.159"/>
<polygon fill="#000000" stroke="#000000" points="180.6907,-33.5377 189.6883,-27.9437 179.166,-26.7058 180.6907,-33.5377"/>
</g>
<!-- :core:data:local&#45;&gt;:libraries:testing -->
<g id="edge14" class="edge">
<title>:core:data:local-&gt;:libraries:testing</title>
<path fill="none" stroke="#000000" d="M113.1213,-144.937C126.6148,-135.4122 143.611,-123.4149 158.2755,-113.0635"/>
<polygon fill="#000000" stroke="#000000" points="160.4449,-115.8163 166.5961,-107.19 156.408,-110.0975 160.4449,-115.8163"/>
</g>
<!-- :libraries:testing&#45;&gt;:libraries:arch -->
<g id="edge18" class="edge">
<title>:libraries:testing-&gt;:libraries:arch</title>
<path fill="none" stroke="#000000" d="M239.047,-76.2029C281.2632,-64.0931 342.6499,-46.4841 386.8343,-33.8097"/>
<polygon fill="#000000" stroke="#000000" points="387.9012,-37.1449 396.5484,-31.0232 385.971,-30.4163 387.9012,-37.1449"/>
</g>
<!-- :libraries:testing&#45;&gt;:core:domain -->
<g id="edge17" class="edge">
<title>:libraries:testing-&gt;:core:domain</title>
<path fill="none" stroke="#000000" d="M203.5554,-72.2022C209.5627,-63.7214 216.8655,-53.4115 223.4827,-44.0696"/>
<polygon fill="#000000" stroke="#000000" points="226.3861,-46.0259 229.3102,-35.8425 220.6739,-41.9797 226.3861,-46.0259"/>
</g>
<!-- :features:exchanges&#45;&gt;:libraries:arch -->
<g id="edge20" class="edge">
<title>:features:exchanges-&gt;:libraries:arch</title>
<path fill="none" stroke="#000000" d="M314.5187,-215.8698C314.7523,-197.0379 317.068,-167.1452 327.9487,-144 347.5114,-102.3864 385.5159,-64.7351 412.2515,-41.6489"/>
<polygon fill="#000000" stroke="#000000" points="414.78,-44.0943 420.1541,-34.9636 410.259,-38.7501 414.78,-44.0943"/>
</g>
<!-- :features:exchanges&#45;&gt;:libraries:design -->
<g id="edge25" class="edge">
<title>:features:exchanges-&gt;:libraries:design</title>
<path fill="none" stroke="#000000" d="M318.5358,-215.9157C323.6794,-195.0594 335.2704,-161.4152 358.9487,-144 400.6116,-113.3574 538.1562,-99.7031 628.4664,-93.9198"/>
<polygon fill="#000000" stroke="#000000" points="628.9252,-97.3982 638.6893,-93.2857 628.4918,-90.4116 628.9252,-97.3982"/>
</g>
<!-- :features:exchanges&#45;&gt;:core:navigation -->
<g id="edge24" class="edge">
<title>:features:exchanges-&gt;:core:navigation</title>
<path fill="none" stroke="#000000" d="M345.0459,-216.937C362.5699,-207.0022 384.8385,-194.3774 403.6084,-183.7362"/>
<polygon fill="#000000" stroke="#000000" points="405.5325,-186.6688 412.5056,-178.6921 402.0802,-180.5793 405.5325,-186.6688"/>
</g>
<!-- :features:exchanges&#45;&gt;:core:data:remote -->
<g id="edge22" class="edge">
<title>:features:exchanges-&gt;:core:data:remote</title>
<path fill="none" stroke="#000000" d="M378.8166,-221.7046C445.5311,-208.8611 549.8854,-188.7715 618.8396,-175.4969"/>
<polygon fill="#000000" stroke="#000000" points="619.5896,-178.9169 628.7476,-173.5895 618.2662,-172.0431 619.5896,-178.9169"/>
</g>
<!-- :features:exchanges&#45;&gt;:core:domain -->
<g id="edge21" class="edge">
<title>:features:exchanges-&gt;:core:domain</title>
<path fill="none" stroke="#000000" d="M304.1153,-216.1391C298.4055,-205.9101 291.8046,-192.6313 287.9487,-180 273.8172,-133.7073 289.7214,-117.7596 273.9487,-72 270.7149,-62.6182 265.7327,-53.0781 260.6551,-44.6795"/>
<polygon fill="#000000" stroke="#000000" points="263.5044,-42.6375 255.1862,-36.0756 257.5968,-46.3925 263.5044,-42.6375"/>
</g>
<!-- :features:exchanges&#45;&gt;:core:data:local -->
<g id="edge23" class="edge">
<title>:features:exchanges-&gt;:core:data:local</title>
<path fill="none" stroke="#000000" d="M267.2961,-218.8186C230.9187,-207.2294 180.7752,-191.2544 142.9199,-179.1944"/>
<polygon fill="#000000" stroke="#000000" points="143.675,-175.7617 133.0844,-176.0609 141.5501,-182.4314 143.675,-175.7617"/>
</g>
<!-- :features:exchanges&#45;&gt;:libraries:testing -->
<g id="edge19" class="edge">
<title>:features:exchanges-&gt;:libraries:testing</title>
<path fill="none" stroke="#000000" d="M290.5904,-216.5577C277.6946,-206.6627 262.0657,-193.5692 249.9487,-180 232.5963,-160.5679 216.6426,-135.6028 205.7122,-116.8975"/>
<polygon fill="#000000" stroke="#000000" points="208.6281,-114.9463 200.6198,-108.0096 202.5544,-118.4263 208.6281,-114.9463"/>
</g>
<!-- :features:details&#45;&gt;:libraries:arch -->
<g id="edge27" class="edge">
<title>:features:details-&gt;:libraries:arch</title>
<path fill="none" stroke="#000000" d="M647.0099,-226.1901C702.4543,-218.0384 775.9437,-203.166 793.9487,-180 804.1716,-166.8467 811.8409,-93.7141 792.9487,-72 774.8959,-51.2508 611.4839,-33.1919 514.1177,-24.1534"/>
<polygon fill="#000000" stroke="#000000" points="514.3162,-20.657 504.0381,-23.228 513.6762,-27.6277 514.3162,-20.657"/>
</g>
<!-- :features:details&#45;&gt;:libraries:design -->
<g id="edge31" class="edge">
<title>:features:details-&gt;:libraries:design</title>
<path fill="none" stroke="#000000" d="M644.5956,-224.982C695.2865,-216.2518 760.8115,-201.2133 776.9487,-180 786.6358,-167.2658 783.8004,-158.4587 776.9487,-144 770.9872,-131.4198 760.5007,-120.7958 749.6176,-112.3882"/>
<polygon fill="#000000" stroke="#000000" points="751.448,-109.3935 741.2863,-106.3952 747.3603,-115.076 751.448,-109.3935"/>
</g>
<!-- :features:details&#45;&gt;:core:navigation -->
<g id="edge30" class="edge">
<title>:features:details-&gt;:core:navigation</title>
<path fill="none" stroke="#000000" d="M550.1805,-217.6621C530.1327,-207.3518 504.0496,-193.9376 482.5123,-182.8613"/>
<polygon fill="#000000" stroke="#000000" points="484.0848,-179.7343 473.5911,-178.2733 480.8833,-185.9593 484.0848,-179.7343"/>
</g>
<!-- :features:details&#45;&gt;:core:data:remote -->
<g id="edge29" class="edge">
<title>:features:details-&gt;:core:data:remote</title>
<path fill="none" stroke="#000000" d="M607.0354,-217.1192C621.3158,-207.51 639.4009,-195.3406 654.9432,-184.8822"/>
<polygon fill="#000000" stroke="#000000" points="656.9333,-187.7617 663.2759,-179.2751 653.0254,-181.9541 656.9333,-187.7617"/>
</g>
<!-- :features:details&#45;&gt;:core:domain -->
<g id="edge28" class="edge">
<title>:features:details-&gt;:core:domain</title>
<path fill="none" stroke="#000000" d="M581.5839,-215.7391C580.1614,-195.3569 574.6849,-162.7788 554.9487,-144 506.5313,-97.9313 471.3059,-132.0446 408.9487,-108 360.9163,-89.479 309.2818,-60.0235 276.3498,-39.8903"/>
<polygon fill="#000000" stroke="#000000" points="277.9239,-36.749 267.5758,-34.4758 274.2478,-42.706 277.9239,-36.749"/>
</g>
<!-- :features:details&#45;&gt;:libraries:testing -->
<g id="edge26" class="edge">
<title>:features:details-&gt;:libraries:testing</title>
<path fill="none" stroke="#000000" d="M575.7131,-215.8462C567.5221,-194.9231 551.0378,-161.2145 524.9487,-144 514.1574,-136.8795 360.1933,-114.0066 265.1184,-100.4199"/>
<polygon fill="#000000" stroke="#000000" points="265.3639,-96.9196 254.97,-98.9729 264.3758,-103.8495 265.3639,-96.9196"/>
</g>
</g>
</svg>